<?xml version="1.0" standalone="no"?>
<!DOCTYPE svg PUBLIC "-//W3C//DTD SVG 1.1//EN" "http://www.w3.org/Graphics/SVG/1.1/DTD/svg11.dtd">
<svg xmlns="http://www.w3.org/2000/svg">
<metadata>Generated by Fontastic.me</metadata>
<defs>
<font id="carstoris" horiz-adv-x="512">
<font-face font-family="carstoris" units-per-em="512" ascent="480" descent="-32"/>
<missing-glyph horiz-adv-x="512" />

<glyph glyph-name="delete" unicode="&#97;" d="M208 446l-134 0c-34 0-34-63-1-63l364 0c36 0 35 63 1 63l-134 0c0 88-96 88-96 0z m-127-377c0-36 34-69 67-69l216 0c33 0 67 34 67 68l0 283-350 0z m63 15l0 183c0 10 7 20 17 20 11-1 15-11 15-22l0-179c0-11-4-21-15-22-9-1-17 8-17 20z m96 2l0 181c0 26 32 26 32 0l0-183c0-26-32-28-32 2z m96-2l0 181c0 30 32 27 32 2l0-183c0-26-32-26-32 0z"/>
<glyph glyph-name="double-arrow-left" unicode="&#100;" d="M313 506c9 8 22 8 30-1 8-8 7-22-1-30l-235-219 235-219c8-8 9-22 1-30-8-9-21-9-30-1l-252 236c-8 8-7 21 1 29z m108 0c9 8 22 8 30-1 8-8 7-22-1-30l-235-219 235-219c8-8 9-22 1-30-8-9-21-9-30-1l-252 236c-8 8-8 21 1 29z"/>
<glyph glyph-name="double-arrow-right" unicode="&#101;" d="M62 475c-8 8-9 22-1 30 8 9 21 9 30 1l251-235c9-8 9-21 1-29l-252-236c-9-8-22-8-30 1-8 8-7 22 1 30l235 219z m108 0c-8 8-9 22-1 30 8 9 21 9 30 1l251-235c8-8 9-21 1-29l-252-236c-9-8-22-8-30 1-8 8-7 22 1 30l235 219z"/>
<glyph glyph-name="doc" unicode="&#102;" d="M76 496l234 3 4-124 121-3 0-358-359 1z m71-216l221 1-1 17-221-1z m0-66l221 1-1 17-221-1z m0-66l221 1-1 17-221-1z m186 320l88-75-89 1z m-271 41l0-509 386 0 2 394c-42 31-89 81-135 118z"/>
<glyph glyph-name="pay-cash" unicode="&#103;" d="M471 142l17 0 0-43c0-12-6-17-17-18z m-335 182c-11-4-5-19 5-15 9 3 5 19-5 15z m65 0c-11-4-5-18 5-15 9 3 5 19-5 15z m-65-264c-11-5-4-19 5-15 9 3 5 19-5 15z m-65 0c-11-5-4-19 5-15 9 3 5 19-5 15z m163 264c-12-3-6-19 5-15 8 3 5 19-5 15z m-33-264c-11-5-4-19 5-15 9 3 5 19-5 15z m-162 264c-11-3-5-19 6-15 8 3 5 19-6 15z m65 0c-12-3-6-19 5-15 8 3 5 19-5 15z m-32 0c-3-1-4-1-5-4-3-6 2-14 10-11 9 3 5 19-5 15z m162-264c-12-4-6-19 5-15 8 3 5 18-5 15z m-66 0c-11-4-5-19 6-15 8 3 5 18-6 15z m-130 0c-11-4-5-19 6-15 8 3 5 18-6 15z m358 0c-5-2-7-5-5-11 1-3 5-6 10-4 9 3 5 18-5 15z m-130 264c-3-1-4-1-5-4-3-6 2-14 10-11 9 3 5 19-5 15z m65-264c-11-5-5-19 5-15 9 3 5 19-5 15z m0 264c-10-2-7-18 5-15 9 2 6 18-5 15z m65 0c-3-1-4-1-5-4-1-2-1-4 0-6 1-4 5-7 10-5 9 3 5 19-5 15z m-130-264c-3-1-4-1-5-4-3-7 2-14 10-11 9 3 5 18-5 15z m-97 264c-12-3-6-19 5-15 9 4 4 18-5 15z m260 0c-12-4-6-19 5-15 9 3 5 19-5 15z m-130 0c-12-3-6-19 5-15 9 3 5 19-5 15z m65 0c-12-3-6-19 5-15 9 3 5 19-5 15z m65-264c-11-4-6-19 5-15 9 3 5 18-5 15z m-65 0c-11-4-6-19 5-15 9 3 5 18-5 15z m-261 0c-11-4-5-19 6-15 9 3 5 18-6 15z m196 0c-12-4-6-19 5-15 9 3 5 18-5 15z m70 146c11 4 17-15 5-19-12-3-18 15-5 19z m-1 13c-12-2-21-13-18-26 4-28 48-22 43 8-2 10-13 20-25 18z m127 14c2-8 1-47 1-59 0-15 1-15-15-15-19 0-111-1-119 1-25 5-36 33-24 55 7 14 18 20 40 20 19 0 39 0 59 0 12 0 51 2 58-2z m-41-92c0-18 0-36 0-54 0-43 6-59-23-59l-353 0c-12 0-43-2-51 3-14 8-10 26-10 45 0 28-1 259 0 270 15-8 43-5 61-5l333 0c36 0 44 5 44-23 0-22 0-44 0-66-17 0-84 1-96-1-56-12-56-96 0-108 12-3 78-2 95-2z m-300 217c9 6 25 13 36 17 47 22 96 47 143 69 6 2 15 9 19 3l42-89z m242 35c17 1 53 0 72 0 13 0 20-6 20-18l0-123-16 0 0 78c0 33-37 28-60 28z m-318-29c-12-8-9-6-27-6-11 0-22-1-29 5-6 6-6 18-1 24 6 7 17 6 28 6 23 0 45 1 68 0z m20-6c4 4 128 96 142 107 7 6 15 13 22 13 4-5 26-34 28-38-7-1-84-39-93-44l-70-33c-13-6-13-5-29-5z m-98 16l0-312c0-17-1-24 8-36 5-8 16-15 30-15l402 0c13 0 21 9 26 16 6 12 5 23 5 37 41 1 33 43 33 77 1 3 0 2 3 4 4 4 5 6 5 13l0 76c0 9-2 14-8 16 0 13 1 128 0 138-2 26-32 22-47 22-23 0-47 0-70 0l-27 57c-2 3 0 2-3 3-5 2-21-7-27-10-8-4-17-8-25-12-5 5-8 11-13 17l-26 34c-5 4-12-3-19-9l-104-77c-6-5-20-3-28-3-18 0-80 2-89-1-16-5-26-15-26-35z"/>
<glyph glyph-name="pay-with-card" unicode="&#104;" d="M45 338c13 1 30 0 43 0l305 0c15 0 26 2 37-6 10-8 11-18 11-33l0-175c0-11 1-33-2-42-4-9-12-17-25-18-12-1-30 0-43 0l-305 0c-14 0-27-1-36 7-11 8-11 16-11 32l0 175c0 11-2 32 2 41 3 10 12 18 24 19z m24-172c-8 0-14 0-10-8 8-3 72-1 86-1l239 0c8 0 15-1 12 8-7 3-72 1-86 1z m1 64l23 0c4-15 11-9 10-18-18-1-31 2-33 18z m40-18c-1 9 7 3 11 18l23 0c-3-17-15-19-34-18z m-12 39c14 0 16 2 17-2 0-1 1-3 1-4 0-8 0-8-5-8l-14 1z m46 0l0-14-21 0-1 14z m-75 0l22 0-1-14-21 0z m75 7c-30 0-22-1-28 6-2 3-3 3-6 4l0 7c17 2 31-1 34-17z m-74 0c1 17 20 18 33 17 0-11-1-5-6-11-6-7 3-6-27-6z m16 26c-12-2-21-8-24-19-3-8-3-33-1-41 3-10 12-19 24-21 7-1 36-1 43 0 12 2 20 10 24 20 2 7 2 34 0 41-3 10-12 18-24 20-6 1-36 2-42 0z m374-37c0 20 1 51-1 70-3 19-18 33-34 38-13 3-53 2-69 2-13 0-280-1-285 0l0 11c5 1 92 0 105 0 26 0 306 1 317 0 2-15 0-41 0-57 0-17 1-103 0-113-2-8-6-14-11-18-6-5-13-6-23-6 1 24 1 49 1 73z m-389 157c5 1 200 0 211 0 15 0 201 1 211 0l0-26c-13-2-38 0-52 0-33 0-364-1-370 0z m0 10c-1 19 10 33 28 34 19 1 42 0 61 0l245 0c19 0 43 1 61 0 17-2 28-15 27-34z m389-259c21 1 32 7 41 18 11 13 11 26 11 47l0 175c0 21 2 35-8 50-7 11-19 20-38 21-17 1-39 0-57 0l-292 0c-23 0-32 1-47-11-28-21-14-60-18-98-21-1-31-7-41-18-11-13-11-26-11-47l0-175c0-21-2-35 8-50 7-11 19-20 38-21 17-1 39 0 57 0l292 0c23 0 32-1 47 11 28 21 14 60 18 98z"/>
<glyph glyph-name="phone" unicode="&#105;" d="M423 36l-109 109c15 11 36 19 50 5l67-67c5-6 8-12 8-19 0-7-3-14-8-20l0 0 0 0c-3-3-6-5-8-8z m-181 281c41 0 74-33 74-73l-49 0c0 14-11 25-25 25z m0 99c95 0 173-77 173-172l-49 0c0 68-56 123-124 123z m0 96c148 0 268-120 268-268l-48 0c0 121-99 220-220 220z m-206-90l109-109c11 16 19 36 5 50l-67 67c-5 5-12 8-19 8-7 0-14-3-19-8l0 0-1 0c-3-3-5-6-8-8z m263-288l109-109c-39-27-84-30-129-18-57 15-115 54-164 103l0-1c0 1-1 1-1 2-54 54-96 119-108 182-8 41-4 81 19 115l108-108c-5-6-10-10-10-10l-8-7 3-10c7-35 29-69 56-96 29-29 65-51 98-58l10-3 7 8c0 0 4 4 10 10z"/>
<glyph glyph-name="social-instagram" unicode="&#107;" d="M387 427c10 0 20-5 27-11 7-7 11-17 11-28 0-10-4-20-11-27-7-7-17-11-27-11-11 0-21 4-28 11-6 7-11 17-11 27 0 11 5 21 11 28 7 6 17 11 28 11z m-71-111c-8 8-17 14-28 18-10 5-20 7-32 7-12 0-23-2-33-7-10-4-19-10-26-17l-1-1c-8-8-14-17-18-28-5-10-7-20-7-32 0-12 2-23 7-33 4-10 10-19 18-27l0 0c8-8 17-14 28-18 9-5 20-7 32-7 12 0 22 2 32 7l1 0c10 4 19 10 27 18l1 1c7 7 13 16 17 26 5 10 7 21 7 33 0 12-2 22-7 32-4 11-10 20-18 28z m-60 74c18 0 35-4 51-10 17-7 32-17 44-29l0 0c12-13 22-27 29-44 7-16 10-33 10-51 0-18-3-35-10-51-7-17-17-31-29-44l-1 0c-12-12-27-22-43-29-16-7-33-10-51-10-18 0-35 3-51 10l-1 0c-16 7-31 17-43 29l0 0c-12 13-22 27-29 44-7 16-10 33-10 51 0 18 3 35 10 51l0 1c7 16 17 31 29 43l0 0c13 12 27 22 44 29 16 6 33 10 51 10z m124 73l-248 0c-11 0-22-3-32-7-10-4-19-10-26-18-8-7-14-16-18-26-4-10-7-21-7-32l0-248c0-11 3-22 7-32 4-10 10-19 17-26l1-1c7-7 16-13 26-17 10-4 21-7 32-7l248 0c11 0 22 3 32 7 10 4 19 10 26 18l1 0c7 7 13 16 17 26 4 10 7 21 7 32l0 248c0 11-3 22-7 32-4 10-10 19-17 26l-1 1c-7 7-16 13-26 17-10 4-21 7-32 7z m-248 49l248 0c18 0 35-4 50-10 16-7 31-17 43-29l1 0c12-12 21-27 28-43 6-15 10-32 10-50l0-248c0-18-4-35-10-51-7-16-17-30-29-42-12-12-26-22-42-29-16-6-33-10-51-10l-248 0c-18 0-35 4-50 10-17 7-31 17-43 29l-1 0c-12 12-21 27-28 43-6 15-10 32-10 50l0 248c0 18 4 35 10 50 7 17 17 31 29 43 12 12 26 22 43 29 15 6 32 10 50 10z"/>
<glyph glyph-name="social-vk" unicode="&#108;" d="M60 257c6-18 26-46 37-60 47-53 111-107 197-81 6 18 3 106 60 36l36-34c22-13 106-15 121 7 8 22-44 58-51 73-8 6-34 25-32 43 2 27 101 112 78 146-145 2-93 20-145-71-19-35-31-55-57-56-16 38 3 114-12 132-11 12-45 12-64 12-36-1-35-1-58-17 16-15 26 7 30-51 2-24 5-58-11-76-17 0-25 11-34 23-29 43-48 99-60 105-16 4-80 4-94-3-7-16 52-123 59-128z"/>
<glyph glyph-name="minus" unicode="&#110;" d="M0 292l512 0 0-72-512 0z"/>
<glyph glyph-name="plus" unicode="&#111;" d="M0 292l220 0 0 220 72 0 0-220 220 0 0-72-220 0 0-220-72 0 0 220-220 0z"/>
<glyph glyph-name="check" unicode="&#112;" d="M189 145c-2 2-18 23-21 27-3 4-6 9-9 12l-18 25c-3 3-5 6-8 9l-9 13c0 0-1 0-1 0-3 3-4 7-7 10-2 2-2 2-3 4-3 4-11 15-15 18-3 3-6 5-9 7-16 9-34 9-50 1-12-6-20-17-25-29-1-5-2-9-2-13l0-9c0 0 0-1 0-1 0-6 3-14 6-18 5-8 11-14 15-21l8-11c6-8 12-16 19-24l58-76c1-2 3-5 5-7 7-10 16-22 24-31l17-19c13-8 19-8 32-8l3 0c0 0 1 0 2 0 3 0 14 4 17 5 9 5 15 13 21 21l7 11c0 0 0 0 0 0 0 1 0 1 0 1l29 45c0 2 1 3 2 4l9 15c1 1 1 1 2 3l6 10c0 0 0 0 0 0 10 14 17 29 27 43l26 41c0 1 1 2 2 3l11 18c1 1 1 1 1 2 1 1 0 1 1 2l45 72c1 1 2 2 3 3l2 4c1 3 3 5 4 7 8 10 19 31 27 43 1 1 1 1 1 2 0 0 0 0 1 0 0 0 0 1 0 1l48 77c3 6 5 13 6 20l0 9c-1 6-2 12-5 18-1 3-3 5-4 7-2 4-7 9-11 11l-10 6c-2 1-2 1-4 2-6 1-8 2-10 2l-13 0c0 0 0 0-1 0-13 0-28-11-35-21-2-2-3-4-4-6-1-2-1-2-2-3l-39-63c-1-2-2-3-4-6-1-1-1-1-2-2 0-2-1-2-2-4l-18-29c-2-3-2-4-4-6l-37-60c-1-2-2-4-4-6l-37-59c-1-3-2-4-4-7-3-6-7-11-11-17-1-3-2-4-4-6l-12-21c-1-2-2-2-3-3-1-2-2-4-3-6l-11-17c0 0 0 0 0 0l-16-25z"/>
<glyph glyph-name="arrow-down" unicode="&#114;" d="M491 395c5 5 12 5 17 0 5-4 5-12 1-16l-244-262c-5-5-12-5-17 0l-245 262c-4 4-4 12 1 16 5 5 12 5 17 0l235-252z"/>
<glyph glyph-name="plus-circle" unicode="&#115;" d="M256 512c70 0 134-29 181-75 46-47 75-111 75-181 0-70-29-134-75-181-47-46-111-75-181-75-70 0-134 29-181 75-46 47-75 111-75 181 0 70 29 134 75 181 47 46 111 75 181 75z m166-90c-43 42-102 68-166 68-64 0-123-26-166-68-42-43-68-102-68-166 0-64 26-123 68-166 43-42 102-68 166-68 64 0 123 26 166 68 42 43 68 102 68 166 0 64-26 123-68 166z m-293-144l104 0 0 107 46 0 0-107 104 0 0-43-104 0 0-108-46 0 0 108-104 0z"/>
<glyph glyph-name="filter" unicode="&#117;" d="M0 402l512 0 0-55-512 0z m0-237l285 0 0-55-285 0z m0 119l402 0 0-56-402 0z"/>
<glyph glyph-name="search" unicode="&#118;" d="M102 378c-4 4-6 10-6 16 0 8 4 15 11 22 9 8 21 15 28 19 7 3 13 6 19 8 35 11 67 6 91-3 24-10 42-25 46-34 0-1 0-1 1-2 1-2 1-5 1-7 0-5-2-10-4-14-3-3-7-6-12-8-3-1-6-1-9-1-5 0-10 3-16 8-5 4-11 8-16 11-48 24-79 1-98-12-8-5-14-9-20-9-6 0-12 2-16 6z m60-205c10-2 20-3 34-3 40 0 76 17 103 44 27 27 43 64 43 104 0 39-14 73-37 98-14 15-31 28-50 36-19 9-40 13-61 13-35 0-71-12-103-41l-16-20c-12-15-18-29-22-45-4-15-5-31-5-50 0-52 38-105 85-125 11-5 20-8 29-11z m-159 115c-2 11-2 22-2 34 0 25 5 49 15 71 10 24 25 46 42 63 33 33 75 51 119 55 43 4 88-7 127-34 5-3 28-23 32-27 1-1 2-2 3-4l2-2c4-4 6-7 9-11l1-1c18-25 30-55 35-86 4-31 1-63-9-92-5-12-11-23-16-35 12-13 66-67 96-97 15-15 54-48 54-66 0-31-33-67-66-53-9 5-49 45-86 83-28 29-55 57-65 66-25-9-36-20-69-26-17-2-34-3-55-1-15 2-31 6-47 13-17 6-32 15-45 25-39 29-69 77-75 125z"/>
<glyph glyph-name="chevron-right" unicode="&#119;" d="M13 512l343 0 143-256-143-256-343 0 143 256z"/>
<glyph glyph-name="social-wa" unicode="&#99;" d="M373 208c-8 4-15 8-23 12-5 3-19 12-25 10-3-1-14-15-16-18-2-2-3-3-5-5-5-6-8-11-16-8-14 6-32 17-43 26-13 11-22 22-33 37-16 23-14 23-5 32 6 6 12 12 15 20 2 5 0 10-2 14-3 8-6 17-9 25-3 8-7 19-10 25-3 5-5 5-12 6-5 0-11 1-17 0-13-3-27-23-32-37-10-29 0-56 14-81l14-21c13-18 25-33 39-48 25-23 42-33 75-47 9-3 17-6 25-9 13-4 17-5 31-2 11 1 16 3 25 8 8 5 15 10 19 16 4 6 7 19 8 27 0 11-3 11-17 18z m61 233c-67 65-162 89-255 57-18-6-31-13-46-21-26-14-55-42-72-64-45-62-62-137-42-213 5-17 11-34 19-50 9-18 10-13 7-23-12-33-23-68-35-102l-8-25 135 43c5 2 6-1 17-6 16-8 33-14 51-18 82-19 161 8 211 48 24 20 44 42 62 73 18 32 29 68 31 105 6 86-33 156-75 196z m26-234c-3-14-9-27-15-39-24-47-68-86-118-102-59-20-126-13-177 21-5 3-5 2-10 0-10-3-70-23-73-23 1 6 5 15 7 21 2 7 4 14 7 21 2 7 4 13 7 20 5 16 5 14 1 20-88 128-8 308 154 323 68 7 127-24 161-57 55-53 77-130 56-205z"/>
<glyph glyph-name="gift" unicode="&#106;" d="M482 356l-92 0c3 5 10 10 16 15 13 11 28 31 34 49 6 15 9 32 3 49-8 27-20 28-22 33-25 10-39 14-68 3-56-21-84-84-104-138-12 26-9 47-38 88-55 78-144 42-130-31 5-25 21-41 39-55 5-5 13-9 18-13l-108 0 0-129 31 0 1-227 388 0 1 227 31 1z m-361 64c-18 33 10 53 38 36 24-14 46-60 51-89-28 5-75 28-89 53z m-59-160l1 64 161 0 0-65z m32-227l0 210 130 0 0-210z m262 434c12 7 36 13 47 1 12-11 5-35-2-47-13-23-43-43-68-55-18-9-24-12-49-10 3 26 40 93 72 111z m-16-434l-19-1-33 0 0 211 130-1 0-209z m-52 226l1 64 161 0 0-64z"/>
<glyph glyph-name="social-email" unicode="&#109;" d="M508 135c-13 6-24 7-42 5-34-2-21-33-75-60-78-38-229-26-290 43-24 29-46 88-38 140 17 246 359 235 372 52 3-43-10-95-47-121-31-21-44-26-36 12l20 79c15 88 43 121-27 117-21-2-20-8-29-18-23 12-35 30-85 24-31-4-56-21-73-37-68-65-86-202 4-251 55-29 94 6 116 15 20-19 27-31 76-25 61 6 116 67 136 120 4 9 7 30 13 36 2 47 2 78-14 114-13 30-30 54-50 73-96 86-268 76-360-15-19-19-37-48-50-74l-17-45c-5-13-10-35-9-53 2-12 0-41 2-55 16-111 76-180 194-204 185-36 326 74 309 128z m-216 120c0 0 0 1 0 1l0-1c-9-57-79-113-108-57-9 17-7 38-5 57 9 38 27 85 64 89 26 4 41-11 47-27 9-23 1-38 2-62z"/>
<glyph glyph-name="shopping-cart" unicode="&#113;" d="M488 412l-362 0c-5 3-10 25-12 30-5 14-5 20-18 25-20 8-41 16-61 24-11 5-21 11-30 0-8-7-7-20 7-26l61-25c9-3 7-1 10-11l82-237c-9-4-9-11-14-24-3-9-6-18-10-28-6-17-16-34-2-41 4-3 12-2 18-2-5-8-9-13-11-25-5-28 17-57 49-57 31 0 53 28 48 57-1 12-6 17-11 25l106 0c-2-3-5-7-7-11-2-5-4-9-4-14-9-55 68-80 93-30 13 27-1 43-7 55 13 0 27-1 28 13 1 17-19 15-27 15l-249 0 15 41c13-2 100-1 120-1 40 0 80 1 120 0 25 0 22 11 29 31 5 16 11 31 15 46 9 31 20 61 30 92 4 15 9 31 14 45 7 21 7 33-20 33z m-119-327c13 4 24-5 27-14 4-13-4-24-13-27-26-10-44 30-14 41z m-180 0c28 8 38-34 12-42-29-7-40 35-12 42z m47 114l-38 0c-2 8-11 27-12 35l50 0z m0 68l-62 0-14 42 76 0z m0 75l-88 1-12 36 100 0z m108-143l-75 0 0 35 76 0z m1 68l-72 0-4 0 0 42 76 0z m-1 75l-71 0-4 1 0 36 76 0z m71-144l-37 1 0 35 48 0c0-5-9-29-11-35z m22 69l-59 0 0 42 73 0z m25 75l-84 1 0 36 95 0z"/>
<glyph glyph-name="map-marker" unicode="&#98;" d="M256 512c-72 0-136-44-161-111-26-67-7-143 47-190l114-211 114 211c54 47 73 123 47 190-25 67-89 111-161 111z m0-250c-40 0-73 33-73 73 0 40 33 73 73 73 40 0 73-33 73-73 0-40-33-73-73-73z"/>
<glyph glyph-name="cross" unicode="&#116;" d="M292 256l213 212c9 10 8 26-1 36-10 9-26 10-36 1l-212-213-212 213c-10 9-26 8-36-1-9-10-10-26-1-36l213-212-213-212c-9-10-8-26 1-36 10-9 26-10 36-1l212 213 212-213c10-9 26-8 36 1 9 10 10 26 1 36z"/>
<glyph glyph-name="skrepka" unicode="&#120;" d="M323 482c-4-2-23-5-28-8-11-3-18-7-28-11l-5-4c-24-14-78-76-84-78-5-7-36-38-45-46-8-8-38-40-45-44-1-3-4-4-7-7-3-3-4-5-7-7-9-16-48-37-64-82-29-76 24-163 110-167 44-1 73 17 100 44 47 48 98 99 146 146 19 21 55 46 48 95-2 32-30 59-58 70-2 2-4 2-6 2l-7 2-22 0c-13-1-18-5-28-8l-19-12c-7-6-11-11-17-17l-66-66c-7-7-11-11-18-16-4-6-11-14-15-17-8-12-38-30-40-49-1-13 7-24 17-27 15-4 23 6 32 10 1 3 1 3 4 4l13 14c6 7 11 12 18 18l108 107c1 2-2 0 2 3 2 1 0 0 3 1 15 9 32 3 41-9 24-31-13-55-39-81-33-33-68-71-101-102-26-24-45-53-77-58-7-3-17-3-25-2-49 7-81 68-47 115 7 11 72 73 73 74 3 4 7 7 11 11 3 4 6 7 10 10l106 106c15 15 32 29 54 33 8 3 27 7 35 1 5 2 10 0 14-1 42-10 79-48 87-92 11-60-33-95-56-117l-45-46c-17-23 13-54 36-36 9 6 73 73 87 87 0 0 0 0 0 1 4 9 10 16 15 24 3 7 7 20 10 26 5 29 9 50 1 80-5 23-15 41-27 58-24 31-65 60-106 67l-27 3z"/>
<glyph glyph-name="select-design" unicode="&#121;" d="M0 487l126 0 0-126-126 0z m314-157l126 0 0-10c-5 2-13 5-17 0-8-2-10-14-17-10-5 5-20 24-36 8-8-5-10-17-13-17-4-3-12 14-31 9-7-2-10-7-12-12z m0 157l126 0 0-126-126 0 0 12 5 7c5 12 5 27 0 39l-5 12z m-157-157l58 0c2-3 7-3 10-3l-3 3 7 0c3-12 5-22 10-32 5-17 19-67 27-94l-109 0z m-157 0l126 0 0-126-126 0z m157 157l126 0 0-17c-5 2-13 7-20 7-17 5-38 5-55-5-46-22-58-75-37-111l-14 0z m99-334c-31 0-65 17-87-9-10-12-10-32 19-32 51 0 68-9 107-36 2-2 2-2 4-5 3 0 3 0 5-2 22-15 53-19 68-34 2-2 2-5 5-5 0-2 0-5 2-5 5 0 27 8 32 10l96 36c-5 24 0 29 5 51 5 41-5 94-24 133-5 14-15 31-27 43-7 5-24 22-38 15-8-5-10-15-17-10-5 3-20 24-36 7-8-7-10-17-13-19-4-2-12 15-31 10-17-5-10-22-14-27-8 3-17 41-20 51-5 17-19 99-53 80-17-8-7-37-2-54 5-19 9-36 14-53 7-19 29-94 32-108 2-5 2-10 2-15 2-7 2-10-2-14-8-5-17-8-27-8z m-31 174l-10 29c0 3-27 17-24 51 2 10 7 19 12 26 34 37 89 13 89-33 0-15-5-3 3-22 2-7 4-17 7-22 2 3 5 5 7 10 22 39 0 94-46 109-17 4-36 4-53-5-60-27-58-104-10-133 8-5 17-10 25-10z"/>
<glyph glyph-name="arrow-down-long" unicode="&#122;" d="M512 279l-256-46-256 46z"/>
</font>
</defs>
</svg>
